<?xml version="1.0" encoding="utf-8"?>
<!-- Generator: Adobe Illustrator 23.0.4, SVG Export Plug-In . SVG Version: 6.00 Build 0)  -->
<svg version="1.1" id="Calque_1" xmlns="http://www.w3.org/2000/svg" xmlns:xlink="http://www.w3.org/1999/xlink" x="0px" y="0px"
	 viewBox="0 0 250.1 257.5" style="enable-background:new 0 0 250.1 257.5;" xml:space="preserve">
<style type="text/css">
	.st0{enable-background:new    ;}
	.st1{fill:#FE4D5F;}
	.st2{fill:#FE8B4A;}
</style>
<g>
	<g class="st0">
		<path class="st1" d="M153.5,216.8c-7.7,0-12.8-0.4-15.4-1.3c-2.6-0.8-3.9-2.3-3.9-4.3V68.2c0-3.4,4.4-6.7,13.3-10
			c8.9-3.3,18.9-4.9,29.9-4.9c9.8,0,16.3,2.1,19.3,6.2c1.1,1.5,1.6,3.1,1.6,4.6v101.9c18.7-1.2,32.8-1.8,42.3-1.8
			c3.2,0,4.8,5.1,4.8,15.3c0,10.2-0.7,19-2.1,26.3s-3.2,11-5.5,11H153.5z"/>
	</g>
	<g class="st0">
		<path class="st2" d="M137.2,203.2c-5,3.7-12,6.7-20.9,9.1c-8.9,2.4-20.4,3.6-34.5,3.6c-14.1,0-27.5-1.2-40.1-3.5
			c-12.7-2.3-21.8-4.9-27.2-7.8c-5.5-2.8-8.2-5.6-8.2-8.2c0-9.3,1.3-19,4-29.1c2.7-10.1,5.8-15.1,9.5-15.1c0.7,0,7.6,2.2,20.8,6.8
			c13.2,4.5,23.1,6.8,29.8,6.8c6.7,0,11-0.7,13-2.1c2-1.4,3-3.5,3-6.1c0-2.7-1.8-5-5.5-7.1c-3.7-2.1-8.2-3.9-13.8-5.5
			c-5.5-1.6-11.5-3.9-17.9-6.9c-6.4-3-12.4-6.3-17.9-10c-5.5-3.7-10.1-8.9-13.8-15.6c-3.7-6.8-5.5-14.5-5.5-23.1
			c0-37,22.1-55.5,66.2-55.5c16.5,0,30.8,1,42.8,3.1c12,2.1,20.5,4.4,25.4,7c4.9,2.6,7.4,5.1,7.4,7.6c0,8.7-2,18-6.1,28
			c-4.1,10-8,15-11.9,15c-0.7,0-2.8-0.8-6.5-2.2c-11-4.8-20.1-7.2-27.4-7.2s-12.2,0.7-14.8,2c-2.6,1.3-3.9,3.4-3.9,6.1
			s1.8,5,5.5,6.8c3.7,1.8,8.2,3.3,13.6,4.8c5.4,1.4,11.3,3.6,17.8,6.5c6.4,2.9,12.4,6.3,17.9,10.2c5.5,3.9,10.1,9.5,13.8,16.6
			c3.7,7.2,5.5,15.5,5.5,25c0,10-2.6,19.1-7.8,27.2C146.3,195.2,142.2,199.6,137.2,203.2z"/>
	</g>
</g>
</svg>
