<?xml version="1.0" standalone="no"?>
<!DOCTYPE svg PUBLIC "-//W3C//DTD SVG 20010904//EN"
 "http://www.w3.org/TR/2001/REC-SVG-20010904/DTD/svg10.dtd">
<svg version="1.0" xmlns="http://www.w3.org/2000/svg"
 width="516.000000pt" height="516.000000pt" viewBox="0 0 516.000000 516.000000"
 preserveAspectRatio="xMidYMid meet">
<metadata>
Created by potrace 1.11, written by Peter Selinger 2001-2013
</metadata>
<g transform="translate(0.000000,516.000000) scale(0.100000,-0.100000)"
fill="#000000" stroke="none">
<path d="M1606 4483 c-1 -1 -47 -5 -101 -8 -119 -6 -176 -11 -230 -20 -105
-17 -176 -32 -223 -49 -23 -8 -43 -15 -45 -15 -3 1 -54 -18 -117 -43 -106 -43
-225 -125 -308 -212 -153 -162 -239 -379 -257 -651 -2 -27 -4 -52 -5 -55 -2
-3 -2 -8 -2 -11 1 -3 3 -53 6 -111 10 -194 48 -311 153 -474 89 -137 188 -224
388 -337 91 -52 294 -150 335 -162 3 -1 23 -9 45 -19 22 -10 47 -19 55 -21 42
-11 260 -85 295 -101 22 -10 42 -18 45 -19 12 -2 77 -40 103 -59 52 -38 77
-103 63 -161 -7 -28 -41 -67 -73 -84 -67 -35 -251 -42 -408 -16 -96 16 -254
60 -433 121 -92 31 -171 57 -177 58 -5 1 -14 4 -20 8 -30 18 -220 69 -239 64
-86 -21 -175 -241 -221 -546 -4 -25 -9 -52 -10 -60 -6 -32 -16 -159 -17 -226
-2 -88 17 -123 101 -177 83 -54 233 -114 328 -132 10 -2 18 -4 18 -5 0 -2 -4
-1 125 -29 86 -18 217 -42 310 -56 77 -11 165 -20 310 -30 52 -4 98 -9 102
-11 5 -3 8 0 8 6 0 7 6 8 18 2 28 -14 530 -3 613 13 13 3 39 7 58 10 51 7 105
15 126 19 87 17 274 80 362 122 39 19 74 34 78 34 3 0 6 -26 5 -57 -1 -32 -1
-61 0 -65 2 -5 3 -11 4 -15 8 -39 67 -67 166 -79 36 -4 482 -8 991 -8 804 -1
928 1 944 14 17 14 53 86 60 120 2 8 6 26 9 40 9 38 18 94 31 182 18 134 26
437 13 533 -11 82 -34 139 -62 154 -22 12 -268 10 -512 -4 -44 -2 -122 -7
-174 -10 -52 -3 -114 -7 -137 -9 -33 -3 -43 -1 -47 12 -3 10 -5 477 -4 1039
l0 1022 -23 40 c-28 51 -80 87 -158 111 -81 26 -126 31 -261 30 -124 -2 -162
-4 -227 -14 -24 -3 -60 -8 -80 -11 -21 -3 -61 -12 -90 -19 -57 -15 -65 -10
-53 34 16 64 -25 127 -120 183 -51 29 -163 75 -200 81 -14 3 -25 5 -25 6 0 3
-142 37 -185 45 -14 2 -36 7 -50 9 -14 3 -36 8 -50 11 -24 5 -75 12 -130 20
-14 1 -43 5 -65 9 -40 5 -125 14 -220 21 -27 2 -126 7 -220 10 -241 9 -286 10
-289 8z m679 -1048 c118 -24 243 -65 382 -126 24 -11 48 -19 55 -19 7 0 20 -6
30 -13 14 -11 16 -41 16 -250 0 -130 -3 -239 -7 -242 -4 -2 -24 7 -44 21 -49
33 -233 124 -338 167 -68 28 -284 100 -334 111 -41 9 -108 35 -190 72 -162 75
-134 248 45 279 19 3 36 7 37 9 2 1 63 4 136 5 90 1 158 -3 212 -14z"/>
</g>
</svg>
